<?xml version="1.0" encoding="UTF-8" standalone="no"?>
<!DOCTYPE svg PUBLIC "-//W3C//DTD SVG 1.1//EN"
 "http://www.w3.org/Graphics/SVG/1.1/DTD/svg11.dtd">
<!-- Generated by graphviz version 12.2.1 (20241206.2353)
 -->
<!-- Pages: 1 -->
<svg width="438pt" height="433pt"
 viewBox="0.00 0.00 438.00 433.00" xmlns="http://www.w3.org/2000/svg" xmlns:xlink="http://www.w3.org/1999/xlink">
<g id="graph0" class="graph" transform="scale(1 1) rotate(0) translate(4 429)">
<polygon fill="white" stroke="none" points="-4,4 -4,-429 434,-429 434,4 -4,4"/>
<!-- 4807592928 -->
<g id="node1" class="node">
<title>4807592928</title>
<polygon fill="#caff70" stroke="black" points="222,-33.5 164,-33.5 164,0 222,0 222,-33.5"/>
<text text-anchor="middle" x="193" y="-20" font-family="monospace" font-size="10.00">y</text>
<text text-anchor="middle" x="193" y="-7.25" font-family="monospace" font-size="10.00"> (1, 1)</text>
</g>
<!-- 4795084768 -->
<g id="node2" class="node">
<title>4795084768</title>
<polygon fill="lightgrey" stroke="black" points="243,-90.25 143,-90.25 143,-69.5 243,-69.5 243,-90.25"/>
<text text-anchor="middle" x="193" y="-76.75" font-family="monospace" font-size="10.00">AddmmBackward0</text>
</g>
<!-- 4795084768&#45;&gt;4807592928 -->
<g id="edge15" class="edge">
<title>4795084768&#45;&gt;4807592928</title>
<path fill="none" stroke="black" d="M193,-69.05C193,-62.63 193,-53.9 193,-45.45"/>
<polygon fill="black" stroke="black" points="196.5,-45.5 193,-35.5 189.5,-45.5 196.5,-45.5"/>
</g>
<!-- 4795085248 -->
<g id="node3" class="node">
<title>4795085248</title>
<polygon fill="lightgrey" stroke="black" points="128,-147 28,-147 28,-126.25 128,-126.25 128,-147"/>
<text text-anchor="middle" x="78" y="-133.5" font-family="monospace" font-size="10.00">AccumulateGrad</text>
</g>
<!-- 4795085248&#45;&gt;4795084768 -->
<g id="edge1" class="edge">
<title>4795085248&#45;&gt;4795084768</title>
<path fill="none" stroke="black" d="M98.56,-125.84C116.3,-117.39 142.18,-105.07 162.37,-95.46"/>
<polygon fill="black" stroke="black" points="163.73,-98.69 171.25,-91.23 160.72,-92.37 163.73,-98.69"/>
</g>
<!-- 4810701104 -->
<g id="node4" class="node">
<title>4810701104</title>
<polygon fill="lightblue" stroke="black" points="122,-216.5 34,-216.5 34,-183 122,-183 122,-216.5"/>
<text text-anchor="middle" x="78" y="-203" font-family="monospace" font-size="10.00">linear2.bias</text>
<text text-anchor="middle" x="78" y="-190.25" font-family="monospace" font-size="10.00"> (1)</text>
</g>
<!-- 4810701104&#45;&gt;4795085248 -->
<g id="edge2" class="edge">
<title>4810701104&#45;&gt;4795085248</title>
<path fill="none" stroke="black" d="M78,-182.69C78,-175.35 78,-166.57 78,-158.71"/>
<polygon fill="black" stroke="black" points="81.5,-158.98 78,-148.98 74.5,-158.98 81.5,-158.98"/>
</g>
<!-- 4795084048 -->
<g id="node5" class="node">
<title>4795084048</title>
<polygon fill="lightgrey" stroke="black" points="240,-147 146,-147 146,-126.25 240,-126.25 240,-147"/>
<text text-anchor="middle" x="193" y="-133.5" font-family="monospace" font-size="10.00">ReluBackward0</text>
</g>
<!-- 4795084048&#45;&gt;4795084768 -->
<g id="edge3" class="edge">
<title>4795084048&#45;&gt;4795084768</title>
<path fill="none" stroke="black" d="M193,-125.84C193,-119.22 193,-110.22 193,-102.02"/>
<polygon fill="black" stroke="black" points="196.5,-102.09 193,-92.09 189.5,-102.09 196.5,-102.09"/>
</g>
<!-- 4795085104 -->
<g id="node6" class="node">
<title>4795085104</title>
<polygon fill="lightgrey" stroke="black" points="241,-210.12 141,-210.12 141,-189.38 241,-189.38 241,-210.12"/>
<text text-anchor="middle" x="191" y="-196.62" font-family="monospace" font-size="10.00">AddmmBackward0</text>
</g>
<!-- 4795085104&#45;&gt;4795084048 -->
<g id="edge4" class="edge">
<title>4795085104&#45;&gt;4795084048</title>
<path fill="none" stroke="black" d="M191.32,-188.93C191.59,-180.77 191.98,-168.88 192.31,-158.6"/>
<polygon fill="black" stroke="black" points="195.81,-158.84 192.64,-148.73 188.81,-158.61 195.81,-158.84"/>
</g>
<!-- 4795083856 -->
<g id="node7" class="node">
<title>4795083856</title>
<polygon fill="lightgrey" stroke="black" points="100,-279.62 0,-279.62 0,-258.88 100,-258.88 100,-279.62"/>
<text text-anchor="middle" x="50" y="-266.12" font-family="monospace" font-size="10.00">AccumulateGrad</text>
</g>
<!-- 4795083856&#45;&gt;4795085104 -->
<g id="edge5" class="edge">
<title>4795083856&#45;&gt;4795085104</title>
<path fill="none" stroke="black" d="M70.5,-258.43C94.1,-247.14 133.1,-228.47 160.32,-215.44"/>
<polygon fill="black" stroke="black" points="161.6,-218.71 169.11,-211.23 158.58,-212.39 161.6,-218.71"/>
</g>
<!-- 4810700624 -->
<g id="node8" class="node">
<title>4810700624</title>
<polygon fill="lightblue" stroke="black" points="94,-355.5 6,-355.5 6,-322 94,-322 94,-355.5"/>
<text text-anchor="middle" x="50" y="-342" font-family="monospace" font-size="10.00">linear1.bias</text>
<text text-anchor="middle" x="50" y="-329.25" font-family="monospace" font-size="10.00"> (3)</text>
</g>
<!-- 4810700624&#45;&gt;4795083856 -->
<g id="edge6" class="edge">
<title>4810700624&#45;&gt;4795083856</title>
<path fill="none" stroke="black" d="M50,-321.75C50,-312.65 50,-301.14 50,-291.32"/>
<polygon fill="black" stroke="black" points="53.5,-291.59 50,-281.59 46.5,-291.59 53.5,-291.59"/>
</g>
<!-- 4795083280 -->
<g id="node9" class="node">
<title>4795083280</title>
<polygon fill="lightgrey" stroke="black" points="218,-279.62 118,-279.62 118,-258.88 218,-258.88 218,-279.62"/>
<text text-anchor="middle" x="168" y="-266.12" font-family="monospace" font-size="10.00">AccumulateGrad</text>
</g>
<!-- 4795083280&#45;&gt;4795085104 -->
<g id="edge7" class="edge">
<title>4795083280&#45;&gt;4795085104</title>
<path fill="none" stroke="black" d="M171.3,-258.58C174.61,-248.85 179.82,-233.57 184.05,-221.15"/>
<polygon fill="black" stroke="black" points="187.31,-222.43 187.22,-211.84 180.68,-220.17 187.31,-222.43"/>
</g>
<!-- 4791627728 -->
<g id="node10" class="node">
<title>4791627728</title>
<polygon fill="lightblue" stroke="black" points="197,-355.5 139,-355.5 139,-322 197,-322 197,-355.5"/>
<text text-anchor="middle" x="168" y="-342" font-family="monospace" font-size="10.00">x</text>
<text text-anchor="middle" x="168" y="-329.25" font-family="monospace" font-size="10.00"> (1, 2)</text>
</g>
<!-- 4791627728&#45;&gt;4795083280 -->
<g id="edge8" class="edge">
<title>4791627728&#45;&gt;4795083280</title>
<path fill="none" stroke="black" d="M168,-321.75C168,-312.65 168,-301.14 168,-291.32"/>
<polygon fill="black" stroke="black" points="171.5,-291.59 168,-281.59 164.5,-291.59 171.5,-291.59"/>
</g>
<!-- 4795084000 -->
<g id="node11" class="node">
<title>4795084000</title>
<polygon fill="lightgrey" stroke="black" points="312,-279.62 236,-279.62 236,-258.88 312,-258.88 312,-279.62"/>
<text text-anchor="middle" x="274" y="-266.12" font-family="monospace" font-size="10.00">TBackward0</text>
</g>
<!-- 4795084000&#45;&gt;4795085104 -->
<g id="edge9" class="edge">
<title>4795084000&#45;&gt;4795085104</title>
<path fill="none" stroke="black" d="M262.11,-258.58C248.99,-247.91 227.65,-230.55 211.76,-217.63"/>
<polygon fill="black" stroke="black" points="214.28,-215.17 204.31,-211.58 209.86,-220.6 214.28,-215.17"/>
</g>
<!-- 4795087360 -->
<g id="node12" class="node">
<title>4795087360</title>
<polygon fill="lightgrey" stroke="black" points="324,-349.12 224,-349.12 224,-328.38 324,-328.38 324,-349.12"/>
<text text-anchor="middle" x="274" y="-335.62" font-family="monospace" font-size="10.00">AccumulateGrad</text>
</g>
<!-- 4795087360&#45;&gt;4795084000 -->
<g id="edge10" class="edge">
<title>4795087360&#45;&gt;4795084000</title>
<path fill="none" stroke="black" d="M274,-328.08C274,-318.46 274,-303.38 274,-291.04"/>
<polygon fill="black" stroke="black" points="277.5,-291.42 274,-281.42 270.5,-291.42 277.5,-291.42"/>
</g>
<!-- 4810700544 -->
<g id="node13" class="node">
<title>4810700544</title>
<polygon fill="lightblue" stroke="black" points="324,-425 224,-425 224,-391.5 324,-391.5 324,-425"/>
<text text-anchor="middle" x="274" y="-411.5" font-family="monospace" font-size="10.00">linear1.weight</text>
<text text-anchor="middle" x="274" y="-398.75" font-family="monospace" font-size="10.00"> (3, 2)</text>
</g>
<!-- 4810700544&#45;&gt;4795087360 -->
<g id="edge11" class="edge">
<title>4810700544&#45;&gt;4795087360</title>
<path fill="none" stroke="black" d="M274,-391.25C274,-382.15 274,-370.64 274,-360.82"/>
<polygon fill="black" stroke="black" points="277.5,-361.09 274,-351.09 270.5,-361.09 277.5,-361.09"/>
</g>
<!-- 4795083472 -->
<g id="node14" class="node">
<title>4795083472</title>
<polygon fill="lightgrey" stroke="black" points="364,-147 288,-147 288,-126.25 364,-126.25 364,-147"/>
<text text-anchor="middle" x="326" y="-133.5" font-family="monospace" font-size="10.00">TBackward0</text>
</g>
<!-- 4795083472&#45;&gt;4795084768 -->
<g id="edge12" class="edge">
<title>4795083472&#45;&gt;4795084768</title>
<path fill="none" stroke="black" d="M302.22,-125.84C281.32,-117.23 250.66,-104.61 227.14,-94.93"/>
<polygon fill="black" stroke="black" points="228.55,-91.72 217.97,-91.15 225.89,-98.2 228.55,-91.72"/>
</g>
<!-- 4795083760 -->
<g id="node15" class="node">
<title>4795083760</title>
<polygon fill="lightgrey" stroke="black" points="406,-210.12 306,-210.12 306,-189.38 406,-189.38 406,-210.12"/>
<text text-anchor="middle" x="356" y="-196.62" font-family="monospace" font-size="10.00">AccumulateGrad</text>
</g>
<!-- 4795083760&#45;&gt;4795083472 -->
<g id="edge13" class="edge">
<title>4795083760&#45;&gt;4795083472</title>
<path fill="none" stroke="black" d="M351.18,-188.93C347,-180.41 340.82,-167.83 335.63,-157.26"/>
<polygon fill="black" stroke="black" points="338.92,-156.01 331.38,-148.58 332.64,-159.1 338.92,-156.01"/>
</g>
<!-- 4810701024 -->
<g id="node16" class="node">
<title>4810701024</title>
<polygon fill="lightblue" stroke="black" points="430,-286 330,-286 330,-252.5 430,-252.5 430,-286"/>
<text text-anchor="middle" x="380" y="-272.5" font-family="monospace" font-size="10.00">linear2.weight</text>
<text text-anchor="middle" x="380" y="-259.75" font-family="monospace" font-size="10.00"> (1, 3)</text>
</g>
<!-- 4810701024&#45;&gt;4795083760 -->
<g id="edge14" class="edge">
<title>4810701024&#45;&gt;4795083760</title>
<path fill="none" stroke="black" d="M374.31,-252.25C371,-242.95 366.8,-231.13 363.26,-221.16"/>
<polygon fill="black" stroke="black" points="366.65,-220.25 360,-212 360.05,-222.59 366.65,-220.25"/>
</g>
</g>
</svg>
